<?xml version="1.0" encoding="utf-8"?>
<!-- Generator: Adobe Illustrator 23.0.0, SVG Export Plug-In . SVG Version: 6.00 Build 0)  -->
<svg version="1.1" id="Layer_1" xmlns="http://www.w3.org/2000/svg" xmlns:xlink="http://www.w3.org/1999/xlink" x="0px" y="0px"
	 viewBox="0 0 100 100" style="enable-background:new 0 0 100 100;" xml:space="preserve">
<style type="text/css">
	.st0{fill:#B2B2B2;}
</style>
<g>
	<path class="st0" d="M76,29H24c-2.21,0-4-1.79-4-4v0c0-2.21,1.79-4,4-4h52c2.21,0,4,1.79,4,4v0C80,27.21,78.21,29,76,29z"/>
	<path class="st0" d="M76,54H24c-2.21,0-4-1.79-4-4v0c0-2.21,1.79-4,4-4h52c2.21,0,4,1.79,4,4v0C80,52.21,78.21,54,76,54z"/>
	<path class="st0" d="M76,79H24c-2.21,0-4-1.79-4-4v0c0-2.21,1.79-4,4-4h52c2.21,0,4,1.79,4,4v0C80,77.21,78.21,79,76,79z"/>
</g>
</svg>
