<?xml version="1.0" encoding="utf-8"?>
<!-- Generator: Adobe Illustrator 22.0.0, SVG Export Plug-In . SVG Version: 6.00 Build 0)  -->
<svg version="1.1" id="Layer_1" xmlns="http://www.w3.org/2000/svg" xmlns:xlink="http://www.w3.org/1999/xlink" x="0px" y="0px"
	 viewBox="0 0 1000 1000" style="enable-background:new 0 0 1000 1000;" xml:space="preserve">
<style type="text/css">
	.st0{fill:#EFEFEF;stroke:#000000;stroke-width:1.5;stroke-linecap:round;stroke-linejoin:round;}
	.st1{fill:#EFEFEF;}
	.st2{fill:#EFEFEF;stroke:#000000;stroke-linecap:round;stroke-linejoin:round;stroke-miterlimit:10;}
</style>
<g id="Layer_2_1_">
</g>
<g id="Layer_1_1_">
	<g>
		<g>
			<path class="st0" d="M316.8,457.9l-5.9,17.8h-7.5l19.2-56.5h8.8l19.3,56.5h-7.8l-6-17.8H316.8z M335.4,452.2l-5.5-16.3
				c-1.3-3.7-2.1-7-2.9-10.3h-0.2c-0.8,3.4-1.8,6.8-2.9,10.2l-5.5,16.4L335.4,452.2L335.4,452.2z"/>
			<path class="st0" d="M358.5,446.1c0-4.2-0.1-7.6-0.3-11h6.5l0.4,6.7h0.2c2-3.9,6.7-7.6,13.4-7.6c5.6,0,14.3,3.4,14.3,17.3v24.2
				h-7.4v-23.4c0-6.5-2.4-12-9.4-12c-4.9,0-8.6,3.4-9.9,7.5c-0.3,0.9-0.5,2.2-0.5,3.4v24.4h-7.4L358.5,446.1L358.5,446.1z"/>
			<path class="st0" d="M440.1,416.2v49.1c0,3.6,0.1,7.7,0.3,10.5h-6.6l-0.3-7h-0.2c-2.3,4.5-7.2,8-13.8,8
				c-9.8,0-17.4-8.3-17.4-20.6c-0.1-13.5,8.3-21.8,18.2-21.8c6.2,0,10.4,2.9,12.2,6.2h0.2v-24.2h7.4V416.2z M432.7,451.6
				c0-0.9-0.1-2.2-0.3-3.1c-1.1-4.7-5.1-8.6-10.7-8.6c-7.6,0-12.2,6.7-12.2,15.7c0,8.2,4,15,12,15c4.9,0,9.5-3.3,10.8-8.8
				c0.3-1,0.3-2,0.3-3.2v-7H432.7z"/>
			<path class="st0" d="M452.4,447.8c0-4.8-0.1-8.9-0.3-12.7h6.5l0.3,8h0.3c1.8-5.5,6.3-8.9,11.2-8.9c0.8,0,1.4,0.1,2.1,0.3v7
				c-0.8-0.2-1.5-0.3-2.5-0.3c-5.2,0-8.9,3.9-9.9,9.5c-0.2,1-0.3,2.2-0.3,3.4v21.6h-7.3v-27.9H452.4z"/>
			<path class="st0" d="M483.1,456.7c0.2,10,6.5,14.1,13.9,14.1c5.3,0,8.5-0.9,11.2-2.1l1.3,5.3c-2.6,1.2-7,2.5-13.5,2.5
				c-12.5,0-20-8.2-20-20.5c0-12.2,7.2-21.9,19-21.9c13.3,0,16.8,11.7,16.8,19.1c0,1.5-0.2,2.7-0.3,3.4h-28.4V456.7z M504.7,451.5
				c0.1-4.7-1.9-12-10.2-12c-7.5,0-10.7,6.9-11.3,12H504.7z"/>
			<path class="st0" d="M523.9,435.1l5.4,20.6c1.2,4.5,2.3,8.7,3,12.9h0.3c0.9-4.1,2.3-8.5,3.6-12.8l6.6-20.7h6.2l6.3,20.3
				c1.5,4.9,2.7,9.1,3.6,13.3h0.3c0.7-4.1,1.8-8.4,3.1-13.2l5.8-20.4h7.3l-13.1,40.6h-6.7l-6.2-19.4c-1.4-4.5-2.6-8.6-3.6-13.3h-0.2
				c-1,4.9-2.3,9.1-3.7,13.4l-6.5,19.3h-6.7l-12.2-40.6L523.9,435.1L523.9,435.1z"/>
			<path class="st0" d="M600.7,419.2h7.3v50.4h24.2v6.1h-31.4L600.7,419.2L600.7,419.2z"/>
			<path class="st0" d="M648.3,423.7c0.1,2.5-1.8,4.5-4.7,4.5c-2.6,0-4.4-2-4.4-4.5c0-2.6,1.9-4.6,4.6-4.6
				C646.5,419.1,648.3,421.1,648.3,423.7z M640.1,475.7v-40.6h7.4v40.6H640.1z"/>
			<path class="st0" d="M669.6,418.2c-1.9,7-5.5,16-7.9,19.9l-4.7,0.6c1.8-4.9,4-13.7,4.9-19.7L669.6,418.2z"/>
			<path class="st0" d="M670.6,468.1c2.2,1.4,6,2.9,9.7,2.9c5.4,0,7.9-2.7,7.9-6c0-3.5-2.1-5.5-7.5-7.5c-7.3-2.6-10.7-6.6-10.7-11.5
				c0-6.5,5.3-11.9,14-11.9c4.1,0,7.7,1.2,10,2.5l-1.8,5.4c-1.6-1-4.5-2.3-8.3-2.3c-4.4,0-6.8,2.5-6.8,5.5c0,3.4,2.4,4.9,7.7,6.9
				c7,2.7,10.7,6.2,10.7,12.2c0,7.1-5.5,12.2-15.2,12.2c-4.4,0-8.6-1.1-11.4-2.8L670.6,468.1z"/>
			<path class="st0" d="M239.9,517.8c4.4-0.7,9.7-1.2,15.5-1.2c10.5,0,17.9,2.4,22.9,7s8,11.2,8,20.3c0,9.2-2.9,16.8-8.1,22
				c-5.3,5.3-14,8.1-25,8.1c-5.2,0-9.6-0.3-13.3-0.7L239.9,517.8L239.9,517.8z M247.2,567.8c1.8,0.3,4.5,0.4,7.4,0.4
				c15.6,0,24.1-8.7,24.1-24c0.1-13.3-7.5-21.8-22.9-21.8c-3.8,0-6.6,0.3-8.6,0.8L247.2,567.8L247.2,567.8z"/>
			<path class="st0" d="M303.8,521.5c0.1,2.5-1.8,4.5-4.7,4.5c-2.6,0-4.4-2-4.4-4.5c0-2.6,1.9-4.6,4.6-4.6S303.8,518.9,303.8,521.5z
				 M295.5,573.5v-40.6h7.4v40.6H295.5z"/>
			<path class="st0" d="M350.1,532.9c-0.2,2.9-0.3,6.2-0.3,11.2v23.6c0,9.3-1.8,15-5.8,18.5c-3.9,3.7-9.6,4.9-14.8,4.9
				c-4.9,0-10.2-1.2-13.5-3.4l1.8-5.6c2.7,1.7,6.9,3.2,11.9,3.2c7.5,0,13.1-3.9,13.1-14.2v-4.5h-0.2c-2.3,3.8-6.6,6.8-12.9,6.8
				c-10.1,0-17.3-8.6-17.3-19.8c0-13.8,9-21.6,18.3-21.6c7,0,10.9,3.7,12.7,7h0.2l0.3-6.1L350.1,532.9L350.1,532.9z M342.5,549
				c0-1.3-0.1-2.3-0.4-3.4c-1.3-4.3-4.9-7.8-10.3-7.8c-7,0-12.1,6-12.1,15.3c0,8,4,14.6,12,14.6c4.5,0,8.6-2.9,10.2-7.5
				c0.4-1.3,0.6-2.7,0.6-3.9L342.5,549L342.5,549z"/>
			<path class="st0" d="M369.8,521.5c0.1,2.5-1.8,4.5-4.7,4.5c-2.6,0-4.4-2-4.4-4.5c0-2.6,1.9-4.6,4.6-4.6S369.8,518.9,369.8,521.5z
				 M361.5,573.5v-40.6h7.4v40.6H361.5z"/>
			<path class="st0" d="M390.1,521.3V533h10.6v5.6h-10.6v21.9c0,5,1.4,7.9,5.5,7.9c1.9,0,3.4-0.3,4.3-0.5l0.3,5.5
				c-1.4,0.6-3.7,1-6.5,1c-3.4,0-6.2-1.1-8-3.1c-2.1-2.2-2.9-5.8-2.9-10.6v-22.1h-6.3V533h6.3v-9.7L390.1,521.3z"/>
			<path class="st0" d="M431.4,573.5l-0.6-5.1h-0.3c-2.3,3.2-6.6,6-12.4,6c-8.2,0-12.4-5.8-12.4-11.7c0-9.8,8.7-15.2,24.4-15.1v-0.8
				c0-3.4-0.9-9.4-9.2-9.4c-3.8,0-7.7,1.2-10.6,3l-1.7-4.9c3.4-2.2,8.2-3.6,13.3-3.6c12.4,0,15.4,8.5,15.4,16.6v15.2
				c0,3.5,0.2,7,0.7,9.7L431.4,573.5L431.4,573.5z M430.3,552.8c-8.1-0.2-17.2,1.3-17.2,9.1c0,4.8,3.2,7,7,7c5.3,0,8.6-3.4,9.8-6.8
				c0.3-0.8,0.4-1.6,0.4-2.3L430.3,552.8L430.3,552.8z"/>
			<path class="st0" d="M449.3,514h7.4v59.5h-7.4V514z"/>
			<path class="st0" d="M486.2,564.6c3.3,2,8.1,3.7,13.1,3.7c7.5,0,11.8-3.9,11.8-9.6c0-5.3-3-8.3-10.7-11.2
				c-9.2-3.3-14.9-8.1-14.9-16c0-8.8,7.3-15.3,18.3-15.3c5.8,0,10,1.3,12.5,2.8l-2,6c-1.8-1-5.6-2.7-10.7-2.7
				c-7.7,0-10.7,4.6-10.7,8.5c0,5.3,3.4,7.9,11.2,10.9c9.6,3.7,14.4,8.3,14.4,16.6c0,8.7-6.5,16.3-19.8,16.3
				c-5.5,0-11.4-1.6-14.4-3.6L486.2,564.6z"/>
			<path class="st0" d="M532.9,554.6c0.2,10,6.5,14.1,13.9,14.1c5.3,0,8.5-0.9,11.2-2.1l1.3,5.3c-2.6,1.2-7,2.5-13.5,2.5
				c-12.5,0-20-8.2-20-20.5s7.2-21.9,19-21.9c13.3,0,16.8,11.7,16.8,19.1c0,1.5-0.2,2.7-0.3,3.4h-28.4V554.6z M554.5,549.3
				c0.1-4.7-1.9-12-10.2-12c-7.5,0-10.7,6.9-11.3,12H554.5z"/>
			<path class="st0" d="M570.8,545.6c0-4.8-0.1-8.9-0.3-12.7h6.5l0.3,8h0.3c1.8-5.5,6.3-8.9,11.2-8.9c0.8,0,1.4,0.1,2.1,0.3v7
				c-0.8-0.2-1.5-0.3-2.5-0.3c-5.2,0-8.9,3.9-9.9,9.5c-0.2,1-0.3,2.2-0.3,3.4v21.6h-7.3L570.8,545.6L570.8,545.6z"/>
			<path class="st0" d="M603.2,532.9l8,22.8c1.3,3.7,2.4,7,3.3,10.4h0.3c0.9-3.4,2.1-6.7,3.4-10.4l7.9-22.8h7.7l-15.9,40.6h-7
				l-15.4-40.6H603.2z"/>
			<path class="st0" d="M648.9,521.5c0.1,2.5-1.8,4.5-4.7,4.5c-2.6,0-4.4-2-4.4-4.5c0-2.6,1.9-4.6,4.6-4.6
				C647.1,516.9,648.9,518.9,648.9,521.5z M640.6,573.5v-40.6h7.4v40.6H640.6z"/>
			<path class="st0" d="M689.2,572c-1.9,1-6.2,2.3-11.7,2.3c-12.2,0-20.2-8.3-20.2-20.7c0-12.5,8.6-21.6,21.8-21.6
				c4.4,0,8.2,1.1,10.2,2.1l-1.7,5.7c-1.8-1-4.5-1.9-8.6-1.9c-9.3,0-14.3,6.9-14.3,15.3c0,9.4,6,15.2,14.1,15.2c4.2,0,7-1.1,9.1-2
				L689.2,572z"/>
			<path class="st0" d="M701.4,554.6c0.2,10,6.5,14.1,13.9,14.1c5.3,0,8.5-0.9,11.2-2.1l1.3,5.3c-2.6,1.2-7,2.5-13.5,2.5
				c-12.5,0-20-8.2-20-20.5s7.2-21.9,19-21.9c13.3,0,16.8,11.7,16.8,19.1c0,1.5-0.2,2.7-0.3,3.4h-28.4V554.6z M723.1,549.3
				c0.1-4.7-1.9-12-10.2-12c-7.5,0-10.7,6.9-11.3,12H723.1z"/>
			<path class="st0" d="M738.3,566c2.2,1.4,6,2.9,9.7,2.9c5.4,0,7.9-2.7,7.9-6c0-3.5-2.1-5.5-7.5-7.5c-7.3-2.6-10.7-6.6-10.7-11.5
				c0-6.5,5.3-11.9,14-11.9c4.1,0,7.7,1.2,10,2.5l-1.8,5.4c-1.6-1-4.5-2.3-8.3-2.3c-4.4,0-6.8,2.5-6.8,5.5c0,3.4,2.4,4.9,7.7,6.9
				c7,2.7,10.7,6.2,10.7,12.2c0,7.1-5.5,12.2-15.2,12.2c-4.4,0-8.6-1.1-11.4-2.8L738.3,566z"/>
		</g>
		<g>
			<path class="st1" d="M316.8,457.9l-5.9,17.8h-7.5l19.2-56.5h8.8l19.3,56.5h-7.8l-6-17.8H316.8z M335.4,452.2l-5.5-16.3
				c-1.3-3.7-2.1-7-2.9-10.3h-0.2c-0.8,3.4-1.8,6.8-2.9,10.2l-5.5,16.4L335.4,452.2L335.4,452.2z"/>
			<path class="st1" d="M358.5,446.1c0-4.2-0.1-7.6-0.3-11h6.5l0.4,6.7h0.2c2-3.9,6.7-7.6,13.4-7.6c5.6,0,14.3,3.4,14.3,17.3v24.2
				h-7.4v-23.4c0-6.5-2.4-12-9.4-12c-4.9,0-8.6,3.4-9.9,7.5c-0.3,0.9-0.5,2.2-0.5,3.4v24.4h-7.4L358.5,446.1L358.5,446.1z"/>
			<path class="st1" d="M440.1,416.2v49.1c0,3.6,0.1,7.7,0.3,10.5h-6.6l-0.3-7h-0.2c-2.3,4.5-7.2,8-13.8,8
				c-9.8,0-17.4-8.3-17.4-20.6c-0.1-13.5,8.3-21.8,18.2-21.8c6.2,0,10.4,2.9,12.2,6.2h0.2v-24.2h7.4V416.2z M432.7,451.6
				c0-0.9-0.1-2.2-0.3-3.1c-1.1-4.7-5.1-8.6-10.7-8.6c-7.6,0-12.2,6.7-12.2,15.7c0,8.2,4,15,12,15c4.9,0,9.5-3.3,10.8-8.8
				c0.3-1,0.3-2,0.3-3.2v-7H432.7z"/>
			<path class="st1" d="M452.4,447.8c0-4.8-0.1-8.9-0.3-12.7h6.5l0.3,8h0.3c1.8-5.5,6.3-8.9,11.2-8.9c0.8,0,1.4,0.1,2.1,0.3v7
				c-0.8-0.2-1.5-0.3-2.5-0.3c-5.2,0-8.9,3.9-9.9,9.5c-0.2,1-0.3,2.2-0.3,3.4v21.6h-7.3v-27.9H452.4z"/>
			<path class="st1" d="M483.1,456.7c0.2,10,6.5,14.1,13.9,14.1c5.3,0,8.5-0.9,11.2-2.1l1.3,5.3c-2.6,1.2-7,2.5-13.5,2.5
				c-12.5,0-20-8.2-20-20.5c0-12.2,7.2-21.9,19-21.9c13.3,0,16.8,11.7,16.8,19.1c0,1.5-0.2,2.7-0.3,3.4h-28.4V456.7z M504.7,451.5
				c0.1-4.7-1.9-12-10.2-12c-7.5,0-10.7,6.9-11.3,12H504.7z"/>
			<path class="st1" d="M523.9,435.1l5.4,20.6c1.2,4.5,2.3,8.7,3,12.9h0.3c0.9-4.1,2.3-8.5,3.6-12.8l6.6-20.7h6.2l6.3,20.3
				c1.5,4.9,2.7,9.1,3.6,13.3h0.3c0.7-4.1,1.8-8.4,3.1-13.2l5.8-20.4h7.3l-13.1,40.6h-6.7l-6.2-19.4c-1.4-4.5-2.6-8.6-3.6-13.3h-0.2
				c-1,4.9-2.3,9.1-3.7,13.4l-6.5,19.3h-6.7l-12.2-40.6L523.9,435.1L523.9,435.1z"/>
			<path class="st1" d="M600.7,419.2h7.3v50.4h24.2v6.1h-31.4L600.7,419.2L600.7,419.2z"/>
			<path class="st1" d="M648.3,423.7c0.1,2.5-1.8,4.5-4.7,4.5c-2.6,0-4.4-2-4.4-4.5c0-2.6,1.9-4.6,4.6-4.6
				C646.5,419.1,648.3,421.1,648.3,423.7z M640.1,475.7v-40.6h7.4v40.6H640.1z"/>
			<path class="st1" d="M669.6,418.2c-1.9,7-5.5,16-7.9,19.9l-4.7,0.6c1.8-4.9,4-13.7,4.9-19.7L669.6,418.2z"/>
			<path class="st1" d="M670.6,468.1c2.2,1.4,6,2.9,9.7,2.9c5.4,0,7.9-2.7,7.9-6c0-3.5-2.1-5.5-7.5-7.5c-7.3-2.6-10.7-6.6-10.7-11.5
				c0-6.5,5.3-11.9,14-11.9c4.1,0,7.7,1.2,10,2.5l-1.8,5.4c-1.6-1-4.5-2.3-8.3-2.3c-4.4,0-6.8,2.5-6.8,5.5c0,3.4,2.4,4.9,7.7,6.9
				c7,2.7,10.7,6.2,10.7,12.2c0,7.1-5.5,12.2-15.2,12.2c-4.4,0-8.6-1.1-11.4-2.8L670.6,468.1z"/>
			<path class="st1" d="M239.9,517.8c4.4-0.7,9.7-1.2,15.5-1.2c10.5,0,17.9,2.4,22.9,7s8,11.2,8,20.3c0,9.2-2.9,16.8-8.1,22
				c-5.3,5.3-14,8.1-25,8.1c-5.2,0-9.6-0.3-13.3-0.7L239.9,517.8L239.9,517.8z M247.2,567.8c1.8,0.3,4.5,0.4,7.4,0.4
				c15.6,0,24.1-8.7,24.1-24c0.1-13.3-7.5-21.8-22.9-21.8c-3.8,0-6.6,0.3-8.6,0.8L247.2,567.8L247.2,567.8z"/>
			<path class="st1" d="M303.8,521.5c0.1,2.5-1.8,4.5-4.7,4.5c-2.6,0-4.4-2-4.4-4.5c0-2.6,1.9-4.6,4.6-4.6S303.8,518.9,303.8,521.5z
				 M295.5,573.5v-40.6h7.4v40.6H295.5z"/>
			<path class="st1" d="M350.1,532.9c-0.2,2.9-0.3,6.2-0.3,11.2v23.6c0,9.3-1.8,15-5.8,18.5c-3.9,3.7-9.6,4.9-14.8,4.9
				c-4.9,0-10.2-1.2-13.5-3.4l1.8-5.6c2.7,1.7,6.9,3.2,11.9,3.2c7.5,0,13.1-3.9,13.1-14.2v-4.5h-0.2c-2.3,3.8-6.6,6.8-12.9,6.8
				c-10.1,0-17.3-8.6-17.3-19.8c0-13.8,9-21.6,18.3-21.6c7,0,10.9,3.7,12.7,7h0.2l0.3-6.1L350.1,532.9L350.1,532.9z M342.5,549
				c0-1.3-0.1-2.3-0.4-3.4c-1.3-4.3-4.9-7.8-10.3-7.8c-7,0-12.1,6-12.1,15.3c0,8,4,14.6,12,14.6c4.5,0,8.6-2.9,10.2-7.5
				c0.4-1.3,0.6-2.7,0.6-3.9L342.5,549L342.5,549z"/>
			<path class="st1" d="M369.8,521.5c0.1,2.5-1.8,4.5-4.7,4.5c-2.6,0-4.4-2-4.4-4.5c0-2.6,1.9-4.6,4.6-4.6S369.8,518.9,369.8,521.5z
				 M361.5,573.5v-40.6h7.4v40.6H361.5z"/>
			<path class="st1" d="M390.1,521.3V533h10.6v5.6h-10.6v21.9c0,5,1.4,7.9,5.5,7.9c1.9,0,3.4-0.3,4.3-0.5l0.3,5.5
				c-1.4,0.6-3.7,1-6.5,1c-3.4,0-6.2-1.1-8-3.1c-2.1-2.2-2.9-5.8-2.9-10.6v-22.1h-6.3V533h6.3v-9.7L390.1,521.3z"/>
			<path class="st1" d="M431.4,573.5l-0.6-5.1h-0.3c-2.3,3.2-6.6,6-12.4,6c-8.2,0-12.4-5.8-12.4-11.7c0-9.8,8.7-15.2,24.4-15.1v-0.8
				c0-3.4-0.9-9.4-9.2-9.4c-3.8,0-7.7,1.2-10.6,3l-1.7-4.9c3.4-2.2,8.2-3.6,13.3-3.6c12.4,0,15.4,8.5,15.4,16.6v15.2
				c0,3.5,0.2,7,0.7,9.7L431.4,573.5L431.4,573.5z M430.3,552.8c-8.1-0.2-17.2,1.3-17.2,9.1c0,4.8,3.2,7,7,7c5.3,0,8.6-3.4,9.8-6.8
				c0.3-0.8,0.4-1.6,0.4-2.3L430.3,552.8L430.3,552.8z"/>
			<path class="st1" d="M449.3,514h7.4v59.5h-7.4V514z"/>
			<path class="st1" d="M486.2,564.6c3.3,2,8.1,3.7,13.1,3.7c7.5,0,11.8-3.9,11.8-9.6c0-5.3-3-8.3-10.7-11.2
				c-9.2-3.3-14.9-8.1-14.9-16c0-8.8,7.3-15.3,18.3-15.3c5.8,0,10,1.3,12.5,2.8l-2,6c-1.8-1-5.6-2.7-10.7-2.7
				c-7.7,0-10.7,4.6-10.7,8.5c0,5.3,3.4,7.9,11.2,10.9c9.6,3.7,14.4,8.3,14.4,16.6c0,8.7-6.5,16.3-19.8,16.3
				c-5.5,0-11.4-1.6-14.4-3.6L486.2,564.6z"/>
			<path class="st1" d="M532.9,554.6c0.2,10,6.5,14.1,13.9,14.1c5.3,0,8.5-0.9,11.2-2.1l1.3,5.3c-2.6,1.2-7,2.5-13.5,2.5
				c-12.5,0-20-8.2-20-20.5s7.2-21.9,19-21.9c13.3,0,16.8,11.7,16.8,19.1c0,1.5-0.2,2.7-0.3,3.4h-28.4V554.6z M554.5,549.3
				c0.1-4.7-1.9-12-10.2-12c-7.5,0-10.7,6.9-11.3,12H554.5z"/>
			<path class="st1" d="M570.8,545.6c0-4.8-0.1-8.9-0.3-12.7h6.5l0.3,8h0.3c1.8-5.5,6.3-8.9,11.2-8.9c0.8,0,1.4,0.1,2.1,0.3v7
				c-0.8-0.2-1.5-0.3-2.5-0.3c-5.2,0-8.9,3.9-9.9,9.5c-0.2,1-0.3,2.2-0.3,3.4v21.6h-7.3L570.8,545.6L570.8,545.6z"/>
			<path class="st1" d="M603.2,532.9l8,22.8c1.3,3.7,2.4,7,3.3,10.4h0.3c0.9-3.4,2.1-6.7,3.4-10.4l7.9-22.8h7.7l-15.9,40.6h-7
				l-15.4-40.6H603.2z"/>
			<path class="st1" d="M648.9,521.5c0.1,2.5-1.8,4.5-4.7,4.5c-2.6,0-4.4-2-4.4-4.5c0-2.6,1.9-4.6,4.6-4.6
				C647.1,516.9,648.9,518.9,648.9,521.5z M640.6,573.5v-40.6h7.4v40.6H640.6z"/>
			<path class="st1" d="M689.2,572c-1.9,1-6.2,2.3-11.7,2.3c-12.2,0-20.2-8.3-20.2-20.7c0-12.5,8.6-21.6,21.8-21.6
				c4.4,0,8.2,1.1,10.2,2.1l-1.7,5.7c-1.8-1-4.5-1.9-8.6-1.9c-9.3,0-14.3,6.9-14.3,15.3c0,9.4,6,15.2,14.1,15.2c4.2,0,7-1.1,9.1-2
				L689.2,572z"/>
			<path class="st1" d="M701.4,554.6c0.2,10,6.5,14.1,13.9,14.1c5.3,0,8.5-0.9,11.2-2.1l1.3,5.3c-2.6,1.2-7,2.5-13.5,2.5
				c-12.5,0-20-8.2-20-20.5s7.2-21.9,19-21.9c13.3,0,16.8,11.7,16.8,19.1c0,1.5-0.2,2.7-0.3,3.4h-28.4V554.6z M723.1,549.3
				c0.1-4.7-1.9-12-10.2-12c-7.5,0-10.7,6.9-11.3,12H723.1z"/>
			<path class="st1" d="M738.3,566c2.2,1.4,6,2.9,9.7,2.9c5.4,0,7.9-2.7,7.9-6c0-3.5-2.1-5.5-7.5-7.5c-7.3-2.6-10.7-6.6-10.7-11.5
				c0-6.5,5.3-11.9,14-11.9c4.1,0,7.7,1.2,10,2.5l-1.8,5.4c-1.6-1-4.5-2.3-8.3-2.3c-4.4,0-6.8,2.5-6.8,5.5c0,3.4,2.4,4.9,7.7,6.9
				c7,2.7,10.7,6.2,10.7,12.2c0,7.1-5.5,12.2-15.2,12.2c-4.4,0-8.6-1.1-11.4-2.8L738.3,566z"/>
		</g>
		<g>
			<path class="st2" d="M316.8,457.9l-5.9,17.8h-7.5l19.2-56.5h8.8l19.3,56.5h-7.8l-6-17.8H316.8z M335.4,452.2l-5.5-16.3
				c-1.3-3.7-2.1-7-2.9-10.3h-0.2c-0.8,3.4-1.8,6.8-2.9,10.2l-5.5,16.4L335.4,452.2L335.4,452.2z"/>
			<path class="st2" d="M358.5,446.1c0-4.2-0.1-7.6-0.3-11h6.5l0.4,6.7h0.2c2-3.9,6.7-7.6,13.4-7.6c5.6,0,14.3,3.4,14.3,17.3v24.2
				h-7.4v-23.4c0-6.5-2.4-12-9.4-12c-4.9,0-8.6,3.4-9.9,7.5c-0.3,0.9-0.5,2.2-0.5,3.4v24.4h-7.4L358.5,446.1L358.5,446.1z"/>
			<path class="st2" d="M440.1,416.2v49.1c0,3.6,0.1,7.7,0.3,10.5h-6.6l-0.3-7h-0.2c-2.3,4.5-7.2,8-13.8,8
				c-9.8,0-17.4-8.3-17.4-20.6c-0.1-13.5,8.3-21.8,18.2-21.8c6.2,0,10.4,2.9,12.2,6.2h0.2v-24.2h7.4V416.2z M432.7,451.6
				c0-0.9-0.1-2.2-0.3-3.1c-1.1-4.7-5.1-8.6-10.7-8.6c-7.6,0-12.2,6.7-12.2,15.7c0,8.2,4,15,12,15c4.9,0,9.5-3.3,10.8-8.8
				c0.3-1,0.3-2,0.3-3.2v-7H432.7z"/>
			<path class="st2" d="M452.4,447.8c0-4.8-0.1-8.9-0.3-12.7h6.5l0.3,8h0.3c1.8-5.5,6.3-8.9,11.2-8.9c0.8,0,1.4,0.1,2.1,0.3v7
				c-0.8-0.2-1.5-0.3-2.5-0.3c-5.2,0-8.9,3.9-9.9,9.5c-0.2,1-0.3,2.2-0.3,3.4v21.6h-7.3v-27.9H452.4z"/>
			<path class="st2" d="M483.1,456.7c0.2,10,6.5,14.1,13.9,14.1c5.3,0,8.5-0.9,11.2-2.1l1.3,5.3c-2.6,1.2-7,2.5-13.5,2.5
				c-12.5,0-20-8.2-20-20.5c0-12.2,7.2-21.9,19-21.9c13.3,0,16.8,11.7,16.8,19.1c0,1.5-0.2,2.7-0.3,3.4h-28.4V456.7z M504.7,451.5
				c0.1-4.7-1.9-12-10.2-12c-7.5,0-10.7,6.9-11.3,12H504.7z"/>
			<path class="st2" d="M523.9,435.1l5.4,20.6c1.2,4.5,2.3,8.7,3,12.9h0.3c0.9-4.1,2.3-8.5,3.6-12.8l6.6-20.7h6.2l6.3,20.3
				c1.5,4.9,2.7,9.1,3.6,13.3h0.3c0.7-4.1,1.8-8.4,3.1-13.2l5.8-20.4h7.3l-13.1,40.6h-6.7l-6.2-19.4c-1.4-4.5-2.6-8.6-3.6-13.3h-0.2
				c-1,4.9-2.3,9.1-3.7,13.4l-6.5,19.3h-6.7l-12.2-40.6L523.9,435.1L523.9,435.1z"/>
			<path class="st2" d="M600.7,419.2h7.3v50.4h24.2v6.1h-31.4L600.7,419.2L600.7,419.2z"/>
			<path class="st2" d="M648.3,423.7c0.1,2.5-1.8,4.5-4.7,4.5c-2.6,0-4.4-2-4.4-4.5c0-2.6,1.9-4.6,4.6-4.6
				C646.5,419.1,648.3,421.1,648.3,423.7z M640.1,475.7v-40.6h7.4v40.6H640.1z"/>
			<path class="st2" d="M669.6,418.2c-1.9,7-5.5,16-7.9,19.9l-4.7,0.6c1.8-4.9,4-13.7,4.9-19.7L669.6,418.2z"/>
			<path class="st2" d="M670.6,468.1c2.2,1.4,6,2.9,9.7,2.9c5.4,0,7.9-2.7,7.9-6c0-3.5-2.1-5.5-7.5-7.5c-7.3-2.6-10.7-6.6-10.7-11.5
				c0-6.5,5.3-11.9,14-11.9c4.1,0,7.7,1.2,10,2.5l-1.8,5.4c-1.6-1-4.5-2.3-8.3-2.3c-4.4,0-6.8,2.5-6.8,5.5c0,3.4,2.4,4.9,7.7,6.9
				c7,2.7,10.7,6.2,10.7,12.2c0,7.1-5.5,12.2-15.2,12.2c-4.4,0-8.6-1.1-11.4-2.8L670.6,468.1z"/>
			<path class="st2" d="M239.9,517.8c4.4-0.7,9.7-1.2,15.5-1.2c10.5,0,17.9,2.4,22.9,7s8,11.2,8,20.3c0,9.2-2.9,16.8-8.1,22
				c-5.3,5.3-14,8.1-25,8.1c-5.2,0-9.6-0.3-13.3-0.7L239.9,517.8L239.9,517.8z M247.2,567.8c1.8,0.3,4.5,0.4,7.4,0.4
				c15.6,0,24.1-8.7,24.1-24c0.1-13.3-7.5-21.8-22.9-21.8c-3.8,0-6.6,0.3-8.6,0.8L247.2,567.8L247.2,567.8z"/>
			<path class="st2" d="M303.8,521.5c0.1,2.5-1.8,4.5-4.7,4.5c-2.6,0-4.4-2-4.4-4.5c0-2.6,1.9-4.6,4.6-4.6S303.8,518.9,303.8,521.5z
				 M295.5,573.5v-40.6h7.4v40.6H295.5z"/>
			<path class="st2" d="M350.1,532.9c-0.2,2.9-0.3,6.2-0.3,11.2v23.6c0,9.3-1.8,15-5.8,18.5c-3.9,3.7-9.6,4.9-14.8,4.9
				c-4.9,0-10.2-1.2-13.5-3.4l1.8-5.6c2.7,1.7,6.9,3.2,11.9,3.2c7.5,0,13.1-3.9,13.1-14.2v-4.5h-0.2c-2.3,3.8-6.6,6.8-12.9,6.8
				c-10.1,0-17.3-8.6-17.3-19.8c0-13.8,9-21.6,18.3-21.6c7,0,10.9,3.7,12.7,7h0.2l0.3-6.1L350.1,532.9L350.1,532.9z M342.5,549
				c0-1.3-0.1-2.3-0.4-3.4c-1.3-4.3-4.9-7.8-10.3-7.8c-7,0-12.1,6-12.1,15.3c0,8,4,14.6,12,14.6c4.5,0,8.6-2.9,10.2-7.5
				c0.4-1.3,0.6-2.7,0.6-3.9L342.5,549L342.5,549z"/>
			<path class="st2" d="M369.8,521.5c0.1,2.5-1.8,4.5-4.7,4.5c-2.6,0-4.4-2-4.4-4.5c0-2.6,1.9-4.6,4.6-4.6S369.8,518.9,369.8,521.5z
				 M361.5,573.5v-40.6h7.4v40.6H361.5z"/>
			<path class="st2" d="M390.1,521.3V533h10.6v5.6h-10.6v21.9c0,5,1.4,7.9,5.5,7.9c1.9,0,3.4-0.3,4.3-0.5l0.3,5.5
				c-1.4,0.6-3.7,1-6.5,1c-3.4,0-6.2-1.1-8-3.1c-2.1-2.2-2.9-5.8-2.9-10.6v-22.1h-6.3V533h6.3v-9.7L390.1,521.3z"/>
			<path class="st2" d="M431.4,573.5l-0.6-5.1h-0.3c-2.3,3.2-6.6,6-12.4,6c-8.2,0-12.4-5.8-12.4-11.7c0-9.8,8.7-15.2,24.4-15.1v-0.8
				c0-3.4-0.9-9.4-9.2-9.4c-3.8,0-7.7,1.2-10.6,3l-1.7-4.9c3.4-2.2,8.2-3.6,13.3-3.6c12.4,0,15.4,8.5,15.4,16.6v15.2
				c0,3.5,0.2,7,0.7,9.7L431.4,573.5L431.4,573.5z M430.3,552.8c-8.1-0.2-17.2,1.3-17.2,9.1c0,4.8,3.2,7,7,7c5.3,0,8.6-3.4,9.8-6.8
				c0.3-0.8,0.4-1.6,0.4-2.3L430.3,552.8L430.3,552.8z"/>
			<path class="st2" d="M449.3,514h7.4v59.5h-7.4V514z"/>
			<path class="st2" d="M486.2,564.6c3.3,2,8.1,3.7,13.1,3.7c7.5,0,11.8-3.9,11.8-9.6c0-5.3-3-8.3-10.7-11.2
				c-9.2-3.3-14.9-8.1-14.9-16c0-8.8,7.3-15.3,18.3-15.3c5.8,0,10,1.3,12.5,2.8l-2,6c-1.8-1-5.6-2.7-10.7-2.7
				c-7.7,0-10.7,4.6-10.7,8.5c0,5.3,3.4,7.9,11.2,10.9c9.6,3.7,14.4,8.3,14.4,16.6c0,8.7-6.5,16.3-19.8,16.3
				c-5.5,0-11.4-1.6-14.4-3.6L486.2,564.6z"/>
			<path class="st2" d="M532.9,554.6c0.2,10,6.5,14.1,13.9,14.1c5.3,0,8.5-0.9,11.2-2.1l1.3,5.3c-2.6,1.2-7,2.5-13.5,2.5
				c-12.5,0-20-8.2-20-20.5s7.2-21.9,19-21.9c13.3,0,16.8,11.7,16.8,19.1c0,1.5-0.2,2.7-0.3,3.4h-28.4V554.6z M554.5,549.3
				c0.1-4.7-1.9-12-10.2-12c-7.5,0-10.7,6.9-11.3,12H554.5z"/>
			<path class="st2" d="M570.8,545.6c0-4.8-0.1-8.9-0.3-12.7h6.5l0.3,8h0.3c1.8-5.5,6.3-8.9,11.2-8.9c0.8,0,1.4,0.1,2.1,0.3v7
				c-0.8-0.2-1.5-0.3-2.5-0.3c-5.2,0-8.9,3.9-9.9,9.5c-0.2,1-0.3,2.2-0.3,3.4v21.6h-7.3L570.8,545.6L570.8,545.6z"/>
			<path class="st2" d="M603.2,532.9l8,22.8c1.3,3.7,2.4,7,3.3,10.4h0.3c0.9-3.4,2.1-6.7,3.4-10.4l7.9-22.8h7.7l-15.9,40.6h-7
				l-15.4-40.6H603.2z"/>
			<path class="st2" d="M648.9,521.5c0.1,2.5-1.8,4.5-4.7,4.5c-2.6,0-4.4-2-4.4-4.5c0-2.6,1.9-4.6,4.6-4.6
				C647.1,516.9,648.9,518.9,648.9,521.5z M640.6,573.5v-40.6h7.4v40.6H640.6z"/>
			<path class="st2" d="M689.2,572c-1.9,1-6.2,2.3-11.7,2.3c-12.2,0-20.2-8.3-20.2-20.7c0-12.5,8.6-21.6,21.8-21.6
				c4.4,0,8.2,1.1,10.2,2.1l-1.7,5.7c-1.8-1-4.5-1.9-8.6-1.9c-9.3,0-14.3,6.9-14.3,15.3c0,9.4,6,15.2,14.1,15.2c4.2,0,7-1.1,9.1-2
				L689.2,572z"/>
			<path class="st2" d="M701.4,554.6c0.2,10,6.5,14.1,13.9,14.1c5.3,0,8.5-0.9,11.2-2.1l1.3,5.3c-2.6,1.2-7,2.5-13.5,2.5
				c-12.5,0-20-8.2-20-20.5s7.2-21.9,19-21.9c13.3,0,16.8,11.7,16.8,19.1c0,1.5-0.2,2.7-0.3,3.4h-28.4V554.6z M723.1,549.3
				c0.1-4.7-1.9-12-10.2-12c-7.5,0-10.7,6.9-11.3,12H723.1z"/>
			<path class="st2" d="M738.3,566c2.2,1.4,6,2.9,9.7,2.9c5.4,0,7.9-2.7,7.9-6c0-3.5-2.1-5.5-7.5-7.5c-7.3-2.6-10.7-6.6-10.7-11.5
				c0-6.5,5.3-11.9,14-11.9c4.1,0,7.7,1.2,10,2.5l-1.8,5.4c-1.6-1-4.5-2.3-8.3-2.3c-4.4,0-6.8,2.5-6.8,5.5c0,3.4,2.4,4.9,7.7,6.9
				c7,2.7,10.7,6.2,10.7,12.2c0,7.1-5.5,12.2-15.2,12.2c-4.4,0-8.6-1.1-11.4-2.8L738.3,566z"/>
		</g>
	</g>
</g>
</svg>
