<?xml version="1.0" encoding="utf-8"?>
<!-- Generator: Adobe Illustrator 22.0.0, SVG Export Plug-In . SVG Version: 6.00 Build 0)  -->
<svg version="1.1" id="Layer_1" xmlns="http://www.w3.org/2000/svg" xmlns:xlink="http://www.w3.org/1999/xlink" x="0px" y="0px"
	 viewBox="0 0 1000 1000" style="enable-background:new 0 0 1000 1000;" xml:space="preserve">
<style type="text/css">
	.st0{fill:#EFEFEF;stroke:#000000;stroke-width:1.5;stroke-linecap:round;stroke-linejoin:round;}
	.st1{fill:#EFEFEF;}
	.st2{fill:#EFEFEF;stroke:#000000;stroke-linecap:round;stroke-linejoin:round;stroke-miterlimit:10;}
</style>
<g id="Layer_2_1_">
</g>
<g id="Layer_1_1_">
	<g>
		<g>
			<path class="st0" d="M360.7,468.8l-4.5,13.6h-5.7l14.6-43.1h6.7l14.7,43.1h-5.9l-4.6-13.6H360.7z M374.9,464.4l-4.2-12.4
				c-1-2.8-1.6-5.3-2.2-7.9h-0.2c-0.6,2.6-1.4,5.2-2.2,7.8l-4.2,12.5L374.9,464.4L374.9,464.4z"/>
			<path class="st0" d="M392.5,459.8c0-3.2-0.1-5.8-0.2-8.4h5l0.3,5.1h0.2c1.5-3,5.1-5.8,10.2-5.8c4.3,0,10.9,2.6,10.9,13.2v18.4
				h-5.6v-17.8c0-5-1.8-9.1-7.2-9.1c-3.7,0-6.6,2.6-7.5,5.7c-0.2,0.7-0.4,1.7-0.4,2.6v18.6h-5.6L392.5,459.8L392.5,459.8z"/>
			<path class="st0" d="M454.7,437v37.4c0,2.7,0.1,5.9,0.2,8h-5l-0.2-5.3h-0.2c-1.8,3.4-5.5,6.1-10.5,6.1c-7.5,0-13.3-6.3-13.3-15.7
				c-0.1-10.3,6.3-16.6,13.9-16.6c4.7,0,7.9,2.2,9.3,4.7h0.2v-18.4h5.6V437L454.7,437z M449.1,464c0-0.7-0.1-1.7-0.2-2.4
				c-0.8-3.6-3.9-6.6-8.2-6.6c-5.8,0-9.3,5.1-9.3,12c0,6.3,3,11.4,9.1,11.4c3.7,0,7.2-2.5,8.2-6.7c0.2-0.8,0.2-1.5,0.2-2.4
				L449.1,464L449.1,464z"/>
			<path class="st0" d="M464.1,461.1c0-3.7-0.1-6.8-0.2-9.7h5l0.2,6.1h0.2c1.4-4.2,4.8-6.8,8.5-6.8c0.6,0,1.1,0.1,1.6,0.2v5.3
				c-0.6-0.2-1.1-0.2-1.9-0.2c-4,0-6.8,3-7.5,7.2c-0.2,0.8-0.2,1.7-0.2,2.6v16.5h-5.6L464.1,461.1L464.1,461.1z"/>
			<path class="st0" d="M487.5,467.9c0.2,7.6,5,10.7,10.6,10.7c4,0,6.5-0.7,8.5-1.6l1,4c-2,0.9-5.3,1.9-10.3,1.9
				c-9.5,0-15.2-6.3-15.2-15.6c0-9.3,5.5-16.7,14.5-16.7c10.1,0,12.8,8.9,12.8,14.6c0,1.1-0.2,2.1-0.2,2.6L487.5,467.9L487.5,467.9z
				 M504,463.9c0.1-3.6-1.4-9.1-7.8-9.1c-5.7,0-8.2,5.3-8.6,9.1H504z"/>
			<path class="st0" d="M518.6,451.4l4.1,15.7c0.9,3.4,1.8,6.6,2.3,9.8h0.2c0.7-3.1,1.8-6.5,2.7-9.8l5-15.8h4.7l4.8,15.5
				c1.1,3.7,2.1,6.9,2.7,10.1h0.2c0.5-3.1,1.4-6.4,2.4-10.1l4.4-15.6h5.6l-10,31h-5.1l-4.7-14.8c-1.1-3.4-2-6.6-2.7-10.1h-0.2
				c-0.8,3.7-1.8,6.9-2.8,10.2l-5,14.7h-5.1l-9.3-31L518.6,451.4L518.6,451.4z"/>
			<path class="st0" d="M577.1,439.3h5.6v38.4h18.4v4.7h-23.9L577.1,439.3L577.1,439.3z"/>
			<path class="st0" d="M613.4,442.7c0.1,1.9-1.4,3.4-3.6,3.4c-2,0-3.4-1.5-3.4-3.4c0-2,1.4-3.5,3.5-3.5
				C612.1,439.2,613.4,440.7,613.4,442.7z M607.2,482.3v-31h5.6v31H607.2z"/>
			<path class="st0" d="M629.7,438.5c-1.4,5.3-4.2,12.2-6,15.2l-3.6,0.5c1.4-3.7,3-10.4,3.7-15L629.7,438.5z"/>
			<path class="st0" d="M630.4,476.5c1.7,1.1,4.6,2.2,7.4,2.2c4.1,0,6-2.1,6-4.6c0-2.7-1.6-4.2-5.7-5.7c-5.6-2-8.2-5-8.2-8.8
				c0-5,4-9.1,10.7-9.1c3.1,0,5.9,0.9,7.6,1.9l-1.4,4.1c-1.2-0.8-3.4-1.8-6.3-1.8c-3.4,0-5.2,1.9-5.2,4.2c0,2.6,1.8,3.7,5.9,5.3
				c5.3,2.1,8.2,4.7,8.2,9.3c0,5.4-4.2,9.3-11.6,9.3c-3.4,0-6.6-0.8-8.7-2.1L630.4,476.5z"/>
			<path class="st0" d="M302.1,514.4c3.4-0.5,7.4-0.9,11.8-0.9c8,0,13.6,1.8,17.5,5.3s6.1,8.5,6.1,15.5c0,7-2.2,12.8-6.2,16.8
				c-4,4-10.7,6.2-19.1,6.2c-4,0-7.3-0.2-10.1-0.5V514.4L302.1,514.4z M307.6,552.6c1.4,0.2,3.4,0.3,5.6,0.3
				c11.9,0,18.4-6.6,18.4-18.3c0.1-10.1-5.7-16.6-17.5-16.6c-2.9,0-5,0.2-6.6,0.6L307.6,552.6L307.6,552.6z"/>
			<path class="st0" d="M350.8,517.3c0.1,1.9-1.4,3.4-3.6,3.4c-2,0-3.4-1.5-3.4-3.4c0-2,1.4-3.5,3.5-3.5
				C349.4,513.8,350.8,515.3,350.8,517.3z M344.5,556.9v-31h5.6v31H344.5z"/>
			<path class="st0" d="M386.1,525.9c-0.2,2.2-0.2,4.7-0.2,8.5v18c0,7.1-1.4,11.4-4.4,14.1c-3,2.8-7.3,3.7-11.3,3.7
				c-3.7,0-7.8-0.9-10.3-2.6l1.4-4.3c2.1,1.3,5.3,2.4,9.1,2.4c5.7,0,10-3,10-10.8v-3.4h-0.2c-1.8,2.9-5,5.2-9.8,5.2
				c-7.7,0-13.2-6.6-13.2-15.1c0-10.5,6.9-16.5,14-16.5c5.3,0,8.3,2.8,9.7,5.3h0.2l0.2-4.7L386.1,525.9L386.1,525.9z M380.3,538.2
				c0-1-0.1-1.8-0.3-2.6c-1-3.3-3.7-5.9-7.9-5.9c-5.3,0-9.2,4.6-9.2,11.7c0,6.1,3,11.1,9.1,11.1c3.4,0,6.6-2.2,7.8-5.7
				c0.3-1,0.5-2.1,0.5-3L380.3,538.2L380.3,538.2z"/>
			<path class="st0" d="M401.1,517.3c0.1,1.9-1.4,3.4-3.6,3.4c-2,0-3.4-1.5-3.4-3.4c0-2,1.4-3.5,3.5-3.5S401.1,515.3,401.1,517.3z
				 M394.8,556.9v-31h5.6v31H394.8z"/>
			<path class="st0" d="M416.6,517.1v8.9h8.1v4.3h-8.1V547c0,3.8,1.1,6,4.2,6c1.4,0,2.6-0.2,3.3-0.4l0.2,4.2c-1.1,0.5-2.8,0.8-5,0.8
				c-2.6,0-4.7-0.8-6.1-2.4c-1.6-1.7-2.2-4.4-2.2-8.1v-16.8h-4.8V526h4.8v-7.4L416.6,517.1z"/>
			<path class="st0" d="M448.1,556.9l-0.5-3.9h-0.2c-1.8,2.4-5,4.6-9.5,4.6c-6.3,0-9.5-4.4-9.5-8.9c0-7.5,6.6-11.6,18.6-11.5v-0.6
				c0-2.6-0.7-7.2-7-7.2c-2.9,0-5.9,0.9-8.1,2.3l-1.3-3.7c2.6-1.7,6.3-2.7,10.1-2.7c9.5,0,11.7,6.5,11.7,12.7v11.6
				c0,2.7,0.2,5.3,0.5,7.4L448.1,556.9L448.1,556.9z M447.2,541.1c-6.2-0.2-13.1,1-13.1,6.9c0,3.7,2.4,5.3,5.3,5.3
				c4,0,6.6-2.6,7.5-5.2c0.2-0.6,0.3-1.2,0.3-1.8L447.2,541.1L447.2,541.1z"/>
			<path class="st0" d="M461.7,511.5h5.6v45.4h-5.6V511.5z"/>
			<path class="st0" d="M489.8,550.1c2.5,1.5,6.2,2.8,10,2.8c5.7,0,9-3,9-7.3c0-4-2.3-6.3-8.2-8.5c-7-2.5-11.4-6.2-11.4-12.2
				c0-6.7,5.6-11.7,14-11.7c4.4,0,7.6,1,9.5,2.1l-1.5,4.6c-1.4-0.8-4.3-2.1-8.2-2.1c-5.9,0-8.2,3.5-8.2,6.5c0,4,2.6,6,8.5,8.3
				c7.3,2.8,11,6.3,11,12.7c0,6.6-5,12.4-15.1,12.4c-4.2,0-8.7-1.2-11-2.7L489.8,550.1z"/>
			<path class="st0" d="M525.5,542.5c0.2,7.6,5,10.7,10.6,10.7c4,0,6.5-0.7,8.5-1.6l1,4c-2,0.9-5.3,1.9-10.3,1.9
				c-9.5,0-15.2-6.3-15.2-15.6s5.5-16.7,14.5-16.7c10.1,0,12.8,8.9,12.8,14.6c0,1.1-0.2,2.1-0.2,2.6L525.5,542.5L525.5,542.5z
				 M541.9,538.5c0.1-3.6-1.4-9.1-7.8-9.1c-5.7,0-8.2,5.3-8.6,9.1H541.9z"/>
			<path class="st0" d="M554.3,535.6c0-3.7-0.1-6.8-0.2-9.7h5l0.2,6.1h0.2c1.4-4.2,4.8-6.8,8.5-6.8c0.6,0,1.1,0.1,1.6,0.2v5.3
				c-0.6-0.2-1.1-0.2-1.9-0.2c-4,0-6.8,3-7.5,7.2c-0.2,0.8-0.2,1.7-0.2,2.6v16.5h-5.6L554.3,535.6L554.3,535.6z"/>
			<path class="st0" d="M579,525.9l6.1,17.4c1,2.8,1.8,5.3,2.5,7.9h0.2c0.7-2.6,1.6-5.1,2.6-7.9l6-17.4h5.9l-12.1,31h-5.3l-11.7-31
				H579z"/>
			<path class="st0" d="M613.9,517.3c0.1,1.9-1.4,3.4-3.6,3.4c-2,0-3.4-1.5-3.4-3.4c0-2,1.4-3.5,3.5-3.5
				C612.5,513.8,613.9,515.3,613.9,517.3z M607.6,556.9v-31h5.6v31H607.6z"/>
			<path class="st0" d="M644.6,555.8c-1.4,0.8-4.7,1.8-8.9,1.8c-9.3,0-15.4-6.3-15.4-15.8c0-9.5,6.6-16.5,16.6-16.5
				c3.4,0,6.3,0.8,7.8,1.6l-1.3,4.3c-1.4-0.8-3.4-1.4-6.6-1.4c-7.1,0-10.9,5.3-10.9,11.7c0,7.2,4.6,11.6,10.7,11.6
				c3.2,0,5.3-0.8,6.9-1.5L644.6,555.8z"/>
			<path class="st0" d="M653.9,542.5c0.2,7.6,5,10.7,10.6,10.7c4,0,6.5-0.7,8.5-1.6l1,4c-2,0.9-5.3,1.9-10.3,1.9
				c-9.5,0-15.2-6.3-15.2-15.6s5.5-16.7,14.5-16.7c10.1,0,12.8,8.9,12.8,14.6c0,1.1-0.2,2.1-0.2,2.6L653.9,542.5L653.9,542.5z
				 M670.5,538.5c0.1-3.6-1.4-9.1-7.8-9.1c-5.7,0-8.2,5.3-8.6,9.1H670.5z"/>
			<path class="st0" d="M682,551.2c1.7,1.1,4.6,2.2,7.4,2.2c4.1,0,6-2.1,6-4.6c0-2.7-1.6-4.2-5.7-5.7c-5.6-2-8.2-5-8.2-8.8
				c0-5,4-9.1,10.7-9.1c3.1,0,5.9,0.9,7.6,1.9l-1.4,4.1c-1.2-0.8-3.4-1.8-6.3-1.8c-3.4,0-5.2,1.9-5.2,4.2c0,2.6,1.8,3.7,5.9,5.3
				c5.3,2.1,8.2,4.7,8.2,9.3c0,5.4-4.2,9.3-11.6,9.3c-3.4,0-6.6-0.8-8.7-2.1L682,551.2z"/>
		</g>
		<g>
			<path class="st1" d="M360.7,468.8l-4.5,13.6h-5.7l14.6-43.1h6.7l14.7,43.1h-5.9l-4.6-13.6H360.7z M374.9,464.4l-4.2-12.4
				c-1-2.8-1.6-5.3-2.2-7.9h-0.2c-0.6,2.6-1.4,5.2-2.2,7.8l-4.2,12.5L374.9,464.4L374.9,464.4z"/>
			<path class="st1" d="M392.5,459.8c0-3.2-0.1-5.8-0.2-8.4h5l0.3,5.1h0.2c1.5-3,5.1-5.8,10.2-5.8c4.3,0,10.9,2.6,10.9,13.2v18.4
				h-5.6v-17.8c0-5-1.8-9.1-7.2-9.1c-3.7,0-6.6,2.6-7.5,5.7c-0.2,0.7-0.4,1.7-0.4,2.6v18.6h-5.6L392.5,459.8L392.5,459.8z"/>
			<path class="st1" d="M454.7,437v37.4c0,2.7,0.1,5.9,0.2,8h-5l-0.2-5.3h-0.2c-1.8,3.4-5.5,6.1-10.5,6.1c-7.5,0-13.3-6.3-13.3-15.7
				c-0.1-10.3,6.3-16.6,13.9-16.6c4.7,0,7.9,2.2,9.3,4.7h0.2v-18.4h5.6V437L454.7,437z M449.1,464c0-0.7-0.1-1.7-0.2-2.4
				c-0.8-3.6-3.9-6.6-8.2-6.6c-5.8,0-9.3,5.1-9.3,12c0,6.3,3,11.4,9.1,11.4c3.7,0,7.2-2.5,8.2-6.7c0.2-0.8,0.2-1.5,0.2-2.4
				L449.1,464L449.1,464z"/>
			<path class="st1" d="M464.1,461.1c0-3.7-0.1-6.8-0.2-9.7h5l0.2,6.1h0.2c1.4-4.2,4.8-6.8,8.5-6.8c0.6,0,1.1,0.1,1.6,0.2v5.3
				c-0.6-0.2-1.1-0.2-1.9-0.2c-4,0-6.8,3-7.5,7.2c-0.2,0.8-0.2,1.7-0.2,2.6v16.5h-5.6L464.1,461.1L464.1,461.1z"/>
			<path class="st1" d="M487.5,467.9c0.2,7.6,5,10.7,10.6,10.7c4,0,6.5-0.7,8.5-1.6l1,4c-2,0.9-5.3,1.9-10.3,1.9
				c-9.5,0-15.2-6.3-15.2-15.6c0-9.3,5.5-16.7,14.5-16.7c10.1,0,12.8,8.9,12.8,14.6c0,1.1-0.2,2.1-0.2,2.6L487.5,467.9L487.5,467.9z
				 M504,463.9c0.1-3.6-1.4-9.1-7.8-9.1c-5.7,0-8.2,5.3-8.6,9.1H504z"/>
			<path class="st1" d="M518.6,451.4l4.1,15.7c0.9,3.4,1.8,6.6,2.3,9.8h0.2c0.7-3.1,1.8-6.5,2.7-9.8l5-15.8h4.7l4.8,15.5
				c1.1,3.7,2.1,6.9,2.7,10.1h0.2c0.5-3.1,1.4-6.4,2.4-10.1l4.4-15.6h5.6l-10,31h-5.1l-4.7-14.8c-1.1-3.4-2-6.6-2.7-10.1h-0.2
				c-0.8,3.7-1.8,6.9-2.8,10.2l-5,14.7h-5.1l-9.3-31L518.6,451.4L518.6,451.4z"/>
			<path class="st1" d="M577.1,439.3h5.6v38.4h18.4v4.7h-23.9L577.1,439.3L577.1,439.3z"/>
			<path class="st1" d="M613.4,442.7c0.1,1.9-1.4,3.4-3.6,3.4c-2,0-3.4-1.5-3.4-3.4c0-2,1.4-3.5,3.5-3.5
				C612.1,439.2,613.4,440.7,613.4,442.7z M607.2,482.3v-31h5.6v31H607.2z"/>
			<path class="st1" d="M629.7,438.5c-1.4,5.3-4.2,12.2-6,15.2l-3.6,0.5c1.4-3.7,3-10.4,3.7-15L629.7,438.5z"/>
			<path class="st1" d="M630.4,476.5c1.7,1.1,4.6,2.2,7.4,2.2c4.1,0,6-2.1,6-4.6c0-2.7-1.6-4.2-5.7-5.7c-5.6-2-8.2-5-8.2-8.8
				c0-5,4-9.1,10.7-9.1c3.1,0,5.9,0.9,7.6,1.9l-1.4,4.1c-1.2-0.8-3.4-1.8-6.3-1.8c-3.4,0-5.2,1.9-5.2,4.2c0,2.6,1.8,3.7,5.9,5.3
				c5.3,2.1,8.2,4.7,8.2,9.3c0,5.4-4.2,9.3-11.6,9.3c-3.4,0-6.6-0.8-8.7-2.1L630.4,476.5z"/>
			<path class="st1" d="M302.1,514.4c3.4-0.5,7.4-0.9,11.8-0.9c8,0,13.6,1.8,17.5,5.3s6.1,8.5,6.1,15.5c0,7-2.2,12.8-6.2,16.8
				c-4,4-10.7,6.2-19.1,6.2c-4,0-7.3-0.2-10.1-0.5V514.4L302.1,514.4z M307.6,552.6c1.4,0.2,3.4,0.3,5.6,0.3
				c11.9,0,18.4-6.6,18.4-18.3c0.1-10.1-5.7-16.6-17.5-16.6c-2.9,0-5,0.2-6.6,0.6L307.6,552.6L307.6,552.6z"/>
			<path class="st1" d="M350.8,517.3c0.1,1.9-1.4,3.4-3.6,3.4c-2,0-3.4-1.5-3.4-3.4c0-2,1.4-3.5,3.5-3.5
				C349.4,513.8,350.8,515.3,350.8,517.3z M344.5,556.9v-31h5.6v31H344.5z"/>
			<path class="st1" d="M386.1,525.9c-0.2,2.2-0.2,4.7-0.2,8.5v18c0,7.1-1.4,11.4-4.4,14.1c-3,2.8-7.3,3.7-11.3,3.7
				c-3.7,0-7.8-0.9-10.3-2.6l1.4-4.3c2.1,1.3,5.3,2.4,9.1,2.4c5.7,0,10-3,10-10.8v-3.4h-0.2c-1.8,2.9-5,5.2-9.8,5.2
				c-7.7,0-13.2-6.6-13.2-15.1c0-10.5,6.9-16.5,14-16.5c5.3,0,8.3,2.8,9.7,5.3h0.2l0.2-4.7L386.1,525.9L386.1,525.9z M380.3,538.2
				c0-1-0.1-1.8-0.3-2.6c-1-3.3-3.7-5.9-7.9-5.9c-5.3,0-9.2,4.6-9.2,11.7c0,6.1,3,11.1,9.1,11.1c3.4,0,6.6-2.2,7.8-5.7
				c0.3-1,0.5-2.1,0.5-3L380.3,538.2L380.3,538.2z"/>
			<path class="st1" d="M401.1,517.3c0.1,1.9-1.4,3.4-3.6,3.4c-2,0-3.4-1.5-3.4-3.4c0-2,1.4-3.5,3.5-3.5S401.1,515.3,401.1,517.3z
				 M394.8,556.9v-31h5.6v31H394.8z"/>
			<path class="st1" d="M416.6,517.1v8.9h8.1v4.3h-8.1V547c0,3.8,1.1,6,4.2,6c1.4,0,2.6-0.2,3.3-0.4l0.2,4.2c-1.1,0.5-2.8,0.8-5,0.8
				c-2.6,0-4.7-0.8-6.1-2.4c-1.6-1.7-2.2-4.4-2.2-8.1v-16.8h-4.8V526h4.8v-7.4L416.6,517.1z"/>
			<path class="st1" d="M448.1,556.9l-0.5-3.9h-0.2c-1.8,2.4-5,4.6-9.5,4.6c-6.3,0-9.5-4.4-9.5-8.9c0-7.5,6.6-11.6,18.6-11.5v-0.6
				c0-2.6-0.7-7.2-7-7.2c-2.9,0-5.9,0.9-8.1,2.3l-1.3-3.7c2.6-1.7,6.3-2.7,10.1-2.7c9.5,0,11.7,6.5,11.7,12.7v11.6
				c0,2.7,0.2,5.3,0.5,7.4L448.1,556.9L448.1,556.9z M447.2,541.1c-6.2-0.2-13.1,1-13.1,6.9c0,3.7,2.4,5.3,5.3,5.3
				c4,0,6.6-2.6,7.5-5.2c0.2-0.6,0.3-1.2,0.3-1.8L447.2,541.1L447.2,541.1z"/>
			<path class="st1" d="M461.7,511.5h5.6v45.4h-5.6V511.5z"/>
			<path class="st1" d="M489.8,550.1c2.5,1.5,6.2,2.8,10,2.8c5.7,0,9-3,9-7.3c0-4-2.3-6.3-8.2-8.5c-7-2.5-11.4-6.2-11.4-12.2
				c0-6.7,5.6-11.7,14-11.7c4.4,0,7.6,1,9.5,2.1l-1.5,4.6c-1.4-0.8-4.3-2.1-8.2-2.1c-5.9,0-8.2,3.5-8.2,6.5c0,4,2.6,6,8.5,8.3
				c7.3,2.8,11,6.3,11,12.7c0,6.6-5,12.4-15.1,12.4c-4.2,0-8.7-1.2-11-2.7L489.8,550.1z"/>
			<path class="st1" d="M525.5,542.5c0.2,7.6,5,10.7,10.6,10.7c4,0,6.5-0.7,8.5-1.6l1,4c-2,0.9-5.3,1.9-10.3,1.9
				c-9.5,0-15.2-6.3-15.2-15.6s5.5-16.7,14.5-16.7c10.1,0,12.8,8.9,12.8,14.6c0,1.1-0.2,2.1-0.2,2.6L525.5,542.5L525.5,542.5z
				 M541.9,538.5c0.1-3.6-1.4-9.1-7.8-9.1c-5.7,0-8.2,5.3-8.6,9.1H541.9z"/>
			<path class="st1" d="M554.3,535.6c0-3.7-0.1-6.8-0.2-9.7h5l0.2,6.1h0.2c1.4-4.2,4.8-6.8,8.5-6.8c0.6,0,1.1,0.1,1.6,0.2v5.3
				c-0.6-0.2-1.1-0.2-1.9-0.2c-4,0-6.8,3-7.5,7.2c-0.2,0.8-0.2,1.7-0.2,2.6v16.5h-5.6L554.3,535.6L554.3,535.6z"/>
			<path class="st1" d="M579,525.9l6.1,17.4c1,2.8,1.8,5.3,2.5,7.9h0.2c0.7-2.6,1.6-5.1,2.6-7.9l6-17.4h5.9l-12.1,31h-5.3l-11.7-31
				H579z"/>
			<path class="st1" d="M613.9,517.3c0.1,1.9-1.4,3.4-3.6,3.4c-2,0-3.4-1.5-3.4-3.4c0-2,1.4-3.5,3.5-3.5
				C612.5,513.8,613.9,515.3,613.9,517.3z M607.6,556.9v-31h5.6v31H607.6z"/>
			<path class="st1" d="M644.6,555.8c-1.4,0.8-4.7,1.8-8.9,1.8c-9.3,0-15.4-6.3-15.4-15.8c0-9.5,6.6-16.5,16.6-16.5
				c3.4,0,6.3,0.8,7.8,1.6l-1.3,4.3c-1.4-0.8-3.4-1.4-6.6-1.4c-7.1,0-10.9,5.3-10.9,11.7c0,7.2,4.6,11.6,10.7,11.6
				c3.2,0,5.3-0.8,6.9-1.5L644.6,555.8z"/>
			<path class="st1" d="M653.9,542.5c0.2,7.6,5,10.7,10.6,10.7c4,0,6.5-0.7,8.5-1.6l1,4c-2,0.9-5.3,1.9-10.3,1.9
				c-9.5,0-15.2-6.3-15.2-15.6s5.5-16.7,14.5-16.7c10.1,0,12.8,8.9,12.8,14.6c0,1.1-0.2,2.1-0.2,2.6L653.9,542.5L653.9,542.5z
				 M670.5,538.5c0.1-3.6-1.4-9.1-7.8-9.1c-5.7,0-8.2,5.3-8.6,9.1H670.5z"/>
			<path class="st1" d="M682,551.2c1.7,1.1,4.6,2.2,7.4,2.2c4.1,0,6-2.1,6-4.6c0-2.7-1.6-4.2-5.7-5.7c-5.6-2-8.2-5-8.2-8.8
				c0-5,4-9.1,10.7-9.1c3.1,0,5.9,0.9,7.6,1.9l-1.4,4.1c-1.2-0.8-3.4-1.8-6.3-1.8c-3.4,0-5.2,1.9-5.2,4.2c0,2.6,1.8,3.7,5.9,5.3
				c5.3,2.1,8.2,4.7,8.2,9.3c0,5.4-4.2,9.3-11.6,9.3c-3.4,0-6.6-0.8-8.7-2.1L682,551.2z"/>
		</g>
		<g>
			<path class="st2" d="M360.7,468.8l-4.5,13.6h-5.7l14.6-43.1h6.7l14.7,43.1h-5.9l-4.6-13.6H360.7z M374.9,464.4l-4.2-12.4
				c-1-2.8-1.6-5.3-2.2-7.9h-0.2c-0.6,2.6-1.4,5.2-2.2,7.8l-4.2,12.5L374.9,464.4L374.9,464.4z"/>
			<path class="st2" d="M392.5,459.8c0-3.2-0.1-5.8-0.2-8.4h5l0.3,5.1h0.2c1.5-3,5.1-5.8,10.2-5.8c4.3,0,10.9,2.6,10.9,13.2v18.4
				h-5.6v-17.8c0-5-1.8-9.1-7.2-9.1c-3.7,0-6.6,2.6-7.5,5.7c-0.2,0.7-0.4,1.7-0.4,2.6v18.6h-5.6L392.5,459.8L392.5,459.8z"/>
			<path class="st2" d="M454.7,437v37.4c0,2.7,0.1,5.9,0.2,8h-5l-0.2-5.3h-0.2c-1.8,3.4-5.5,6.1-10.5,6.1c-7.5,0-13.3-6.3-13.3-15.7
				c-0.1-10.3,6.3-16.6,13.9-16.6c4.7,0,7.9,2.2,9.3,4.7h0.2v-18.4h5.6V437L454.7,437z M449.1,464c0-0.7-0.1-1.7-0.2-2.4
				c-0.8-3.6-3.9-6.6-8.2-6.6c-5.8,0-9.3,5.1-9.3,12c0,6.3,3,11.4,9.1,11.4c3.7,0,7.2-2.5,8.2-6.7c0.2-0.8,0.2-1.5,0.2-2.4
				L449.1,464L449.1,464z"/>
			<path class="st2" d="M464.1,461.1c0-3.7-0.1-6.8-0.2-9.7h5l0.2,6.1h0.2c1.4-4.2,4.8-6.8,8.5-6.8c0.6,0,1.1,0.1,1.6,0.2v5.3
				c-0.6-0.2-1.1-0.2-1.9-0.2c-4,0-6.8,3-7.5,7.2c-0.2,0.8-0.2,1.7-0.2,2.6v16.5h-5.6L464.1,461.1L464.1,461.1z"/>
			<path class="st2" d="M487.5,467.9c0.2,7.6,5,10.7,10.6,10.7c4,0,6.5-0.7,8.5-1.6l1,4c-2,0.9-5.3,1.9-10.3,1.9
				c-9.5,0-15.2-6.3-15.2-15.6c0-9.3,5.5-16.7,14.5-16.7c10.1,0,12.8,8.9,12.8,14.6c0,1.1-0.2,2.1-0.2,2.6L487.5,467.9L487.5,467.9z
				 M504,463.9c0.1-3.6-1.4-9.1-7.8-9.1c-5.7,0-8.2,5.3-8.6,9.1H504z"/>
			<path class="st2" d="M518.6,451.4l4.1,15.7c0.9,3.4,1.8,6.6,2.3,9.8h0.2c0.7-3.1,1.8-6.5,2.7-9.8l5-15.8h4.7l4.8,15.5
				c1.1,3.7,2.1,6.9,2.7,10.1h0.2c0.5-3.1,1.4-6.4,2.4-10.1l4.4-15.6h5.6l-10,31h-5.1l-4.7-14.8c-1.1-3.4-2-6.6-2.7-10.1h-0.2
				c-0.8,3.7-1.8,6.9-2.8,10.2l-5,14.7h-5.1l-9.3-31L518.6,451.4L518.6,451.4z"/>
			<path class="st2" d="M577.1,439.3h5.6v38.4h18.4v4.7h-23.9L577.1,439.3L577.1,439.3z"/>
			<path class="st2" d="M613.4,442.7c0.1,1.9-1.4,3.4-3.6,3.4c-2,0-3.4-1.5-3.4-3.4c0-2,1.4-3.5,3.5-3.5
				C612.1,439.2,613.4,440.7,613.4,442.7z M607.2,482.3v-31h5.6v31H607.2z"/>
			<path class="st2" d="M629.7,438.5c-1.4,5.3-4.2,12.2-6,15.2l-3.6,0.5c1.4-3.7,3-10.4,3.7-15L629.7,438.5z"/>
			<path class="st2" d="M630.4,476.5c1.7,1.1,4.6,2.2,7.4,2.2c4.1,0,6-2.1,6-4.6c0-2.7-1.6-4.2-5.7-5.7c-5.6-2-8.2-5-8.2-8.8
				c0-5,4-9.1,10.7-9.1c3.1,0,5.9,0.9,7.6,1.9l-1.4,4.1c-1.2-0.8-3.4-1.8-6.3-1.8c-3.4,0-5.2,1.9-5.2,4.2c0,2.6,1.8,3.7,5.9,5.3
				c5.3,2.1,8.2,4.7,8.2,9.3c0,5.4-4.2,9.3-11.6,9.3c-3.4,0-6.6-0.8-8.7-2.1L630.4,476.5z"/>
			<path class="st2" d="M302.1,514.4c3.4-0.5,7.4-0.9,11.8-0.9c8,0,13.6,1.8,17.5,5.3s6.1,8.5,6.1,15.5c0,7-2.2,12.8-6.2,16.8
				c-4,4-10.7,6.2-19.1,6.2c-4,0-7.3-0.2-10.1-0.5V514.4L302.1,514.4z M307.6,552.6c1.4,0.2,3.4,0.3,5.6,0.3
				c11.9,0,18.4-6.6,18.4-18.3c0.1-10.1-5.7-16.6-17.5-16.6c-2.9,0-5,0.2-6.6,0.6L307.6,552.6L307.6,552.6z"/>
			<path class="st2" d="M350.8,517.3c0.1,1.9-1.4,3.4-3.6,3.4c-2,0-3.4-1.5-3.4-3.4c0-2,1.4-3.5,3.5-3.5
				C349.4,513.8,350.8,515.3,350.8,517.3z M344.5,556.9v-31h5.6v31H344.5z"/>
			<path class="st2" d="M386.1,525.9c-0.2,2.2-0.2,4.7-0.2,8.5v18c0,7.1-1.4,11.4-4.4,14.1c-3,2.8-7.3,3.7-11.3,3.7
				c-3.7,0-7.8-0.9-10.3-2.6l1.4-4.3c2.1,1.3,5.3,2.4,9.1,2.4c5.7,0,10-3,10-10.8v-3.4h-0.2c-1.8,2.9-5,5.2-9.8,5.2
				c-7.7,0-13.2-6.6-13.2-15.1c0-10.5,6.9-16.5,14-16.5c5.3,0,8.3,2.8,9.7,5.3h0.2l0.2-4.7L386.1,525.9L386.1,525.9z M380.3,538.2
				c0-1-0.1-1.8-0.3-2.6c-1-3.3-3.7-5.9-7.9-5.9c-5.3,0-9.2,4.6-9.2,11.7c0,6.1,3,11.1,9.1,11.1c3.4,0,6.6-2.2,7.8-5.7
				c0.3-1,0.5-2.1,0.5-3L380.3,538.2L380.3,538.2z"/>
			<path class="st2" d="M401.1,517.3c0.1,1.9-1.4,3.4-3.6,3.4c-2,0-3.4-1.5-3.4-3.4c0-2,1.4-3.5,3.5-3.5S401.1,515.3,401.1,517.3z
				 M394.8,556.9v-31h5.6v31H394.8z"/>
			<path class="st2" d="M416.6,517.1v8.9h8.1v4.3h-8.1V547c0,3.8,1.1,6,4.2,6c1.4,0,2.6-0.2,3.3-0.4l0.2,4.2c-1.1,0.5-2.8,0.8-5,0.8
				c-2.6,0-4.7-0.8-6.1-2.4c-1.6-1.7-2.2-4.4-2.2-8.1v-16.8h-4.8V526h4.8v-7.4L416.6,517.1z"/>
			<path class="st2" d="M448.1,556.9l-0.5-3.9h-0.2c-1.8,2.4-5,4.6-9.5,4.6c-6.3,0-9.5-4.4-9.5-8.9c0-7.5,6.6-11.6,18.6-11.5v-0.6
				c0-2.6-0.7-7.2-7-7.2c-2.9,0-5.9,0.9-8.1,2.3l-1.3-3.7c2.6-1.7,6.3-2.7,10.1-2.7c9.5,0,11.7,6.5,11.7,12.7v11.6
				c0,2.7,0.2,5.3,0.5,7.4L448.1,556.9L448.1,556.9z M447.2,541.1c-6.2-0.2-13.1,1-13.1,6.9c0,3.7,2.4,5.3,5.3,5.3
				c4,0,6.6-2.6,7.5-5.2c0.2-0.6,0.3-1.2,0.3-1.8L447.2,541.1L447.2,541.1z"/>
			<path class="st2" d="M461.7,511.5h5.6v45.4h-5.6V511.5z"/>
			<path class="st2" d="M489.8,550.1c2.5,1.5,6.2,2.8,10,2.8c5.7,0,9-3,9-7.3c0-4-2.3-6.3-8.2-8.5c-7-2.5-11.4-6.2-11.4-12.2
				c0-6.7,5.6-11.7,14-11.7c4.4,0,7.6,1,9.5,2.1l-1.5,4.6c-1.4-0.8-4.3-2.1-8.2-2.1c-5.9,0-8.2,3.5-8.2,6.5c0,4,2.6,6,8.5,8.3
				c7.3,2.8,11,6.3,11,12.7c0,6.6-5,12.4-15.1,12.4c-4.2,0-8.7-1.2-11-2.7L489.8,550.1z"/>
			<path class="st2" d="M525.5,542.5c0.2,7.6,5,10.7,10.6,10.7c4,0,6.5-0.7,8.5-1.6l1,4c-2,0.9-5.3,1.9-10.3,1.9
				c-9.5,0-15.2-6.3-15.2-15.6s5.5-16.7,14.5-16.7c10.1,0,12.8,8.9,12.8,14.6c0,1.1-0.2,2.1-0.2,2.6L525.5,542.5L525.5,542.5z
				 M541.9,538.5c0.1-3.6-1.4-9.1-7.8-9.1c-5.7,0-8.2,5.3-8.6,9.1H541.9z"/>
			<path class="st2" d="M554.3,535.6c0-3.7-0.1-6.8-0.2-9.7h5l0.2,6.1h0.2c1.4-4.2,4.8-6.8,8.5-6.8c0.6,0,1.1,0.1,1.6,0.2v5.3
				c-0.6-0.2-1.1-0.2-1.9-0.2c-4,0-6.8,3-7.5,7.2c-0.2,0.8-0.2,1.7-0.2,2.6v16.5h-5.6L554.3,535.6L554.3,535.6z"/>
			<path class="st2" d="M579,525.9l6.1,17.4c1,2.8,1.8,5.3,2.5,7.9h0.2c0.7-2.6,1.6-5.1,2.6-7.9l6-17.4h5.9l-12.1,31h-5.3l-11.7-31
				H579z"/>
			<path class="st2" d="M613.9,517.3c0.1,1.9-1.4,3.4-3.6,3.4c-2,0-3.4-1.5-3.4-3.4c0-2,1.4-3.5,3.5-3.5
				C612.5,513.8,613.9,515.3,613.9,517.3z M607.6,556.9v-31h5.6v31H607.6z"/>
			<path class="st2" d="M644.6,555.8c-1.4,0.8-4.7,1.8-8.9,1.8c-9.3,0-15.4-6.3-15.4-15.8c0-9.5,6.6-16.5,16.6-16.5
				c3.4,0,6.3,0.8,7.8,1.6l-1.3,4.3c-1.4-0.8-3.4-1.4-6.6-1.4c-7.1,0-10.9,5.3-10.9,11.7c0,7.2,4.6,11.6,10.7,11.6
				c3.2,0,5.3-0.8,6.9-1.5L644.6,555.8z"/>
			<path class="st2" d="M653.9,542.5c0.2,7.6,5,10.7,10.6,10.7c4,0,6.5-0.7,8.5-1.6l1,4c-2,0.9-5.3,1.9-10.3,1.9
				c-9.5,0-15.2-6.3-15.2-15.6s5.5-16.7,14.5-16.7c10.1,0,12.8,8.9,12.8,14.6c0,1.1-0.2,2.1-0.2,2.6L653.9,542.5L653.9,542.5z
				 M670.5,538.5c0.1-3.6-1.4-9.1-7.8-9.1c-5.7,0-8.2,5.3-8.6,9.1H670.5z"/>
			<path class="st2" d="M682,551.2c1.7,1.1,4.6,2.2,7.4,2.2c4.1,0,6-2.1,6-4.6c0-2.7-1.6-4.2-5.7-5.7c-5.6-2-8.2-5-8.2-8.8
				c0-5,4-9.1,10.7-9.1c3.1,0,5.9,0.9,7.6,1.9l-1.4,4.1c-1.2-0.8-3.4-1.8-6.3-1.8c-3.4,0-5.2,1.9-5.2,4.2c0,2.6,1.8,3.7,5.9,5.3
				c5.3,2.1,8.2,4.7,8.2,9.3c0,5.4-4.2,9.3-11.6,9.3c-3.4,0-6.6-0.8-8.7-2.1L682,551.2z"/>
		</g>
	</g>
</g>
</svg>
