<?xml version="1.0" encoding="utf-8"?>
<!-- Generator: Adobe Illustrator 22.0.0, SVG Export Plug-In . SVG Version: 6.00 Build 0)  -->
<svg version="1.1" id="Layer_1" xmlns="http://www.w3.org/2000/svg" xmlns:xlink="http://www.w3.org/1999/xlink" x="0px" y="0px"
	 viewBox="0 0 500 500" style="enable-background:new 0 0 500 500;" xml:space="preserve">
<style type="text/css">
	.st0{stroke:#FFFFFF;stroke-width:3;stroke-linecap:round;stroke-linejoin:round;stroke-miterlimit:10;}
</style>
<g>
	<path d="M328.5,194c3,0,5.5,2.5,5.5,5.5v157c0,3-2.5,5.5-5.5,5.5h-157c-3,0-5.5-2.5-5.5-5.5v-157c0-3,2.5-5.5,5.5-5.5H328.5
		 M328.5,181h-157c-10.2,0-18.5,8.3-18.5,18.5v157c0,10.2,8.3,18.5,18.5,18.5h157c10.2,0,18.5-8.3,18.5-18.5v-157
		C347,189.3,338.7,181,328.5,181L328.5,181z"/>
</g>
<path class="st0" d="M368,160l-96.3,25.8l31.7,31.7l-73.9,73.9c-2,2-2,5.1,0,7.1c1,1,2.3,1.5,3.5,1.5c1.3,0,2.6-0.5,3.5-1.5
	l73.9-73.9l31.7,31.7L368,160z"/>
</svg>
